# xmcd
# 
# Track frame offsets:
#   150
#   17877
#   34860
#   53535
#   68870
#   87175
#   103235
#   118345
#   131362
#   146277
#   161782
#   176007
#   193302
#   212035
#   232270
# 
# Disc length: 3374 seconds
# 
# Revision: 2
# Processed by: cddbd v1.5.1PL2 Copyright (c) Steve Scherf et al.
# Submitted via: Synapstar 1.0 
# 
DISCID=de0d2c0f
DTITLE=Various Artist - MM6317
DYEAR=1900
DGENRE=Country
TTITLE0=Strait, George - Go On
TTITLE1=Montgomery, John Michael - Little Girl, The
TTITLE2=Chesney, Kenny - I Lost It
TTITLE3=Davidson, Clay - I Can't Lie To Me
TTITLE4=O'Neal, Jamie - There Is No Arizona
TTITLE5=Sons Of The Desert - Everybody's Gotta Grow Up
TTITLE6=Cagle, Chris - My Love Goes On And On
TTITLE7=Wariner, Steve and Garth Brooks - Katie Wants A Fast One
TTITLE8=Clark, Terri - A Little Gasoline
TTITLE9=Byrd, Tracy - Take Me With You When You Go
TTITLE10=Adkins, Trace - I'm Gonna Love You Anyway
TTITLE11=Jolie And The Wanted - I Would
TTITLE12=Griggs, Andy - Waitin' On Sundown
TTITLE13=Walker, Clay - Once In A Lifetime Love
TTITLE14=Cochran, Anita - You With Me
EXTD=MediaType: Karaoke CD+G Producer: Music Maestro
EXTT0=
EXTT1=
EXTT2=
EXTT3=
EXTT4=
EXTT5=
EXTT6=
EXTT7=
EXTT8=
EXTT9=
EXTT10=
EXTT11=
EXTT12=
EXTT13=
EXTT14=
PLAYORDER=
